<svg width="48" height="48" viewBox="0 0 48 48" fill="none" xmlns="http://www.w3.org/2000/svg">
<path d="M23.4629 47.9315C22.5727 47.7261 21.751 47.4522 21.2032 46.699C20.8609 46.2197 20.587 45.6034 20.3131 45.0556C20.1761 44.7817 20.1077 44.6448 19.8338 44.5763C18.0535 44.234 16.2731 43.6177 14.6298 42.796C12.0278 41.495 9.76815 39.7147 7.91936 37.4551C7.71394 37.1812 7.50852 37.1812 7.23463 37.2496C5.52279 37.8659 3.674 37.1127 2.78384 35.5378C1.89368 33.8944 2.23605 31.9087 3.74247 30.8131C4.01637 30.6077 4.08484 30.4023 3.94789 30.0599C2.71537 26.02 2.71537 21.9116 3.94789 17.8716C4.01637 17.5977 4.01637 17.3923 3.74247 17.1869C2.23605 16.0913 1.82521 14.1056 2.71537 12.4622C3.60553 10.8188 5.45431 10.1341 7.23463 10.7504C7.57699 10.8873 7.71394 10.7504 7.91936 10.5449C9.76815 8.28531 12.0278 6.50499 14.6298 5.20399C16.2047 4.38231 17.9165 3.83452 19.6283 3.49215C20.0392 3.42368 20.3131 3.28673 20.45 2.73894C20.7239 1.09558 22.2988 0 24.0107 0C25.7225 0 27.2289 1.23252 27.5713 2.87589C27.6398 3.28673 27.8452 3.42368 28.1876 3.49215C30.995 4.03994 33.5285 5.13552 35.8566 6.77889C37.4315 7.87447 38.801 9.10699 39.965 10.5449C40.1704 10.8188 40.3759 10.8873 40.7182 10.7504C42.3616 10.1341 44.2789 10.8873 45.169 12.3937C46.0592 14.0371 45.7168 16.0228 44.2789 17.1184C44.005 17.3238 43.9365 17.5292 44.005 17.8716C45.2375 21.9116 45.2375 26.02 44.005 30.0599C43.9365 30.3338 43.9365 30.5392 44.2104 30.7447C45.5798 31.7718 46.0592 33.689 45.3744 35.2639C44.6212 36.9073 42.8409 37.8659 41.1975 37.3866C40.4443 37.1812 40.102 37.3866 39.6226 37.9344C36.6098 41.3581 32.7753 43.5492 28.3245 44.5078C27.9137 44.5763 27.6398 44.7817 27.5713 45.2611C27.1604 46.699 26.2018 47.5207 24.8323 47.9315C24.6954 47.9315 24.6269 48 24.49 48C24.0791 47.9315 23.8052 47.9315 23.4629 47.9315ZM23.9422 13.4893C18.1904 13.4893 13.4657 18.214 13.4657 23.9658C13.4657 29.7175 18.1904 34.4422 23.9422 34.4422C29.694 34.4422 34.4186 29.7175 34.4186 23.9658C34.4186 18.214 29.694 13.4893 23.9422 13.4893ZM20.3816 4.86163C15.6569 5.75178 11.8224 8.07989 8.80952 11.7775C9.6312 12.8046 9.9051 13.9001 9.6312 15.1327C9.6312 15.2696 9.76815 15.4066 9.83662 15.475C10.7268 15.9544 11.6169 16.4337 12.5071 16.913C12.9179 17.1184 13.3288 17.3923 13.7396 17.5977C16.2047 13.9686 19.5599 11.9829 23.9422 11.9829C28.3245 11.9829 31.6112 14.0371 34.0763 17.5977C35.2403 16.9815 36.3359 16.3652 37.4315 15.7489C37.9793 15.475 38.3216 15.2011 38.1847 14.4479C37.9793 13.4208 38.3901 12.5307 39.0749 11.709C36.062 8.01141 32.2275 5.68331 27.5028 4.79315C27.0235 6.2311 26.0649 7.05278 24.6269 7.39515C24.6269 8.42225 24.6269 9.44936 24.6269 10.408C24.1476 10.408 23.6683 10.408 23.1205 10.408C23.1205 9.38089 23.1205 8.35378 23.1205 7.39515C21.8195 7.05278 20.8609 6.2311 20.3816 4.86163ZM8.80952 36.1541C11.8908 39.8516 15.6569 42.1797 20.3816 43.0699C20.8609 41.7004 21.8195 40.8103 23.2575 40.4679C23.2575 39.4408 23.2575 38.4137 23.2575 37.4551C23.8052 37.4551 24.2161 37.4551 24.7639 37.4551C24.7639 38.4822 24.7639 39.5093 24.7639 40.4679C26.2018 40.8103 27.092 41.7004 27.5713 43.0699C32.296 42.1113 36.1305 39.8516 39.1433 36.1541C38.2532 34.7846 38.1847 34.3738 38.3216 32.7989C38.3216 32.6619 38.2532 32.525 38.1847 32.4565C36.8837 31.7033 35.5142 31.0185 34.1448 30.2653C31.6797 33.8944 28.3245 35.8802 23.9422 35.8802C19.5599 35.8802 16.2047 33.826 13.7396 30.2653C12.3701 31.0185 11.0691 31.7033 9.76815 32.4565C9.69968 32.525 9.56273 32.6619 9.6312 32.7989C9.9051 34.0999 9.56273 35.1954 8.80952 36.1541ZM13.0549 28.9643C11.6169 25.6091 11.6169 22.2539 13.0549 18.8987C11.6169 18.1455 10.2475 17.3238 8.80952 16.5706C7.85089 17.5977 6.75531 18.0086 5.38584 17.8716C4.15331 21.9116 4.15331 25.883 5.38584 29.923C6.75531 29.786 7.85089 30.2653 8.80952 31.224C10.2475 30.5392 11.6169 29.786 13.0549 28.9643ZM39.0749 31.2924C39.965 30.4023 40.9921 29.8545 42.2931 29.923C42.3616 29.923 42.567 29.7175 42.6355 29.6491C43.3202 27.4579 43.5941 25.2668 43.4572 22.9387C43.3887 21.2268 43.1148 19.5835 42.4985 17.9401C41.1975 18.077 40.102 17.6662 39.2118 16.776C39.1433 16.7076 38.9379 16.7076 38.801 16.776C38.1847 17.1184 37.5684 17.4608 37.0206 17.7347C36.3359 18.1455 35.5827 18.4879 34.898 18.8987C36.3359 22.2539 36.3359 25.6091 34.898 28.9643C36.2674 29.786 37.6369 30.5392 39.0749 31.2924ZM23.9422 5.9572C25.1747 5.9572 26.2018 4.9301 26.2018 3.76605C26.2018 2.53352 25.2432 1.50642 24.0107 1.50642C22.7781 1.50642 21.751 2.53352 21.751 3.76605C21.6826 4.9301 22.7097 5.9572 23.9422 5.9572ZM8.19326 14.2425C8.19326 13.01 7.16615 11.9829 5.93363 11.9829C4.7011 11.9829 3.674 13.01 3.674 14.2425C3.674 15.475 4.7011 16.4337 5.93363 16.4337C7.23463 16.4337 8.19326 15.4066 8.19326 14.2425ZM44.1419 14.2425C44.1419 13.01 43.1148 11.9829 41.9507 11.9829C40.7182 11.9829 39.6911 12.9415 39.6911 14.174C39.6911 15.4066 40.7182 16.4337 41.9507 16.4337C43.1148 16.5021 44.1419 15.475 44.1419 14.2425ZM8.19326 33.689C8.19326 32.4565 7.16615 31.4294 5.93363 31.4294C4.7011 31.4294 3.674 32.4565 3.674 33.689C3.674 34.9215 4.7011 35.9486 5.93363 35.9486C7.23463 35.9486 8.19326 34.9215 8.19326 33.689ZM44.1419 33.689C44.1419 32.4565 43.1148 31.4294 41.9507 31.4294C40.7182 31.4294 39.6911 32.388 39.6911 33.6205C39.6911 34.8531 40.7182 35.8802 41.9507 35.8802C43.1148 35.9486 44.1419 34.9215 44.1419 33.689ZM23.9422 41.9743C22.7097 41.9743 21.6826 43.0014 21.6826 44.1655C21.6826 45.398 22.7097 46.4251 23.9422 46.4251C25.1747 46.4251 26.2018 45.398 26.2018 44.1655C26.2018 42.933 25.1747 41.9743 23.9422 41.9743Z" fill="white"/>
<path d="M21.545 23.0748C20.1071 21.7738 19.9017 20.1989 20.3125 18.487C20.7233 16.7067 22.5037 15.5427 24.2155 15.6796C26.2012 15.885 27.5022 17.3915 27.6392 19.3772C27.7077 20.7467 27.4338 21.9792 26.2697 23.0063C26.4751 23.1432 26.6806 23.3487 26.886 23.4856C27.9816 24.1703 29.1456 24.8551 30.2412 25.4713C30.5151 25.6083 30.652 25.8137 30.5835 26.1561C30.5835 26.8408 30.5835 27.5255 30.5835 28.1418C30.652 29.032 30.1727 29.6482 29.4195 29.9221C28.6663 30.196 27.8446 30.4014 27.0914 30.4699C24.6263 30.6753 22.0928 30.7438 19.6278 30.333C19.2169 30.2645 18.8061 30.1275 18.3952 29.9906C17.5736 29.6482 17.0942 29.032 17.1627 28.1418C17.1627 27.4571 17.1627 26.7723 17.1627 26.0876C17.1627 25.8137 17.2312 25.6768 17.4366 25.5398C18.6007 24.8551 19.6962 24.1703 20.8603 23.4856C21.1342 23.4171 21.3396 23.2802 21.545 23.0748ZM23.5308 29.2374C24.9002 29.1689 25.8589 29.1689 26.8175 29.1004C27.4338 29.032 28.1185 28.895 28.7348 28.7581C29.0771 28.6896 29.1456 28.4842 29.1456 28.1418C29.351 27.0462 28.9402 26.293 27.8446 25.8822C27.7077 25.8137 27.5707 25.7452 27.5022 25.6768C26.6806 25.129 25.8589 24.5127 25.0372 23.9649C24.9687 23.8964 24.7633 23.8965 24.6263 23.8965C24.0786 23.8965 23.5992 23.8965 23.0515 23.8965C22.9145 23.8965 22.7091 23.8964 22.6406 23.9649C21.7505 24.9236 20.5864 25.4713 19.4908 26.0876C18.8061 26.4984 18.4637 26.9093 18.6007 27.731C18.6691 28.6896 18.6691 28.6896 19.5593 28.9635C19.6278 28.9635 19.6278 28.9635 19.6962 28.9635C21.2027 29.032 22.5721 29.1689 23.5308 29.2374ZM21.682 19.788C21.682 19.9935 21.682 20.1989 21.682 20.4043C21.7505 21.5683 22.7091 22.39 23.8047 22.4585C24.9002 22.527 25.9273 21.7738 26.0643 20.6782C26.1328 20.0619 26.1328 19.4457 25.9958 18.8979C25.6535 17.5284 24.0101 16.8437 22.7776 17.5284C22.0243 18.0077 21.682 18.8294 21.682 19.788Z" fill="white"/>
<path d="M24.6958 4.44966C24.2164 4.44966 23.7371 4.44966 23.2578 4.44966C23.2578 3.97035 23.2578 3.49103 23.2578 3.01172C23.7371 3.01172 24.2164 3.01172 24.6958 3.01172C24.6958 3.49103 24.6958 3.97035 24.6958 4.44966Z" fill="white"/>
<path d="M6.68599 14.9267C6.20668 14.9267 5.72736 14.9267 5.24805 14.9267C5.24805 14.4474 5.24805 13.9681 5.24805 13.4888C5.72736 13.4888 6.20668 13.4888 6.68599 13.4888C6.68599 13.9681 6.68599 14.4474 6.68599 14.9267Z" fill="white"/>
<path d="M42.6352 13.4888C42.6352 13.9681 42.6352 14.4474 42.6352 14.9267C42.1559 14.9267 41.6766 14.9267 41.1973 14.9267C41.1973 14.4474 41.1973 13.9681 41.1973 13.4888C41.6766 13.4888 42.1559 13.4888 42.6352 13.4888Z" fill="white"/>
<path d="M6.68599 34.4417C6.20668 34.4417 5.72736 34.4417 5.24805 34.4417C5.24805 33.9624 5.24805 33.4831 5.24805 33.0038C5.72736 33.0038 6.20668 33.0038 6.68599 33.0038C6.68599 33.4831 6.68599 33.9624 6.68599 34.4417Z" fill="white"/>
<path d="M42.6352 33.0038C42.6352 33.4831 42.6352 33.9624 42.6352 34.4417C42.1559 34.4417 41.6766 34.4417 41.1973 34.4417C41.1973 33.9624 41.1973 33.4831 41.1973 33.0038C41.6766 33.0038 42.1559 33.0038 42.6352 33.0038Z" fill="white"/>
<path d="M24.6958 43.4807C24.6958 43.96 24.6958 44.4393 24.6958 44.9187C24.2164 44.9187 23.7371 44.9187 23.2578 44.9187C23.2578 44.4393 23.2578 43.96 23.2578 43.4807C23.7371 43.4807 24.148 43.4807 24.6958 43.4807Z" fill="white"/>
</svg>
